# xmcd CD database file
#
# Track frame offsets:
#	150
#	27162
#	45816
#	70901
#	93909
#	110857
#	135448
#	163350
#	184619
#	206730
#	229490
#
# Disc length: 3312 seconds
#
# Revision: 0
# Processed by: cddbd v1.4PL0 Copyright (c) Steve Scherf et al.
# Submitted via: CDex 1.50
#
DISCID=960cee0b
DTITLE=Camillo d'Ancona and Michael Sagmeister - Canzoni e jazz
DYEAR=1900
DGENRE=Jazz
TTITLE0=Piccolo pensiero
TTITLE1=Giorni da buttare
TTITLE2=Volo
TTITLE3=Dedicato
TTITLE4=Treno dove vai
TTITLE5=U vientu
TTITLE6=Samballa
TTITLE7=Tutto ok
TTITLE8=Vecchio Jazz
TTITLE9=E penso a te
TTITLE10=Alleria
EXTD=
EXTT0=
EXTT1=
EXTT2=
EXTT3=
EXTT4=
EXTT5=
EXTT6=
EXTT7=
EXTT8=
EXTT9=
EXTT10=
PLAYORDER=
